<svg width="155" height="35" viewBox="0 0 155 35" fill="none" xmlns="http://www.w3.org/2000/svg">
<path d="M14.884 27.38C12.1987 27.38 9.76667 26.7973 7.588 25.632C5.43467 24.4413 3.73733 22.8073 2.496 20.73C1.28 18.6527 0.672 16.3093 0.672 13.7C0.672 11.0907 1.29267 8.74733 2.534 6.67C3.77533 4.59267 5.47267 2.97133 7.626 1.806C9.80467 0.615332 12.2367 0.0199986 14.922 0.0199986C17.1007 0.0199986 19.0893 0.399999 20.888 1.16C22.6867 1.92 24.2067 3.022 25.448 4.466L22.256 7.468C20.3307 5.39067 17.962 4.352 15.15 4.352C13.326 4.352 11.692 4.75733 10.248 5.568C8.804 6.35333 7.67667 7.45533 6.866 8.874C6.05533 10.2927 5.65 11.9013 5.65 13.7C5.65 15.4987 6.05533 17.1073 6.866 18.526C7.67667 19.9447 8.804 21.0593 10.248 21.87C11.692 22.6553 13.326 23.048 15.15 23.048C17.962 23.048 20.3307 21.9967 22.256 19.894L25.448 22.934C24.2067 24.378 22.674 25.48 20.85 26.24C19.0513 27 17.0627 27.38 14.884 27.38ZM37.2918 6.48C40.2812 6.48 42.5612 7.202 44.1318 8.646C45.7278 10.0647 46.5258 12.218 46.5258 15.106V27H42.0418V24.53C41.4592 25.4167 40.6232 26.1007 39.5338 26.582C38.4698 27.038 37.1778 27.266 35.6578 27.266C34.1378 27.266 32.8078 27.0127 31.6678 26.506C30.5278 25.974 29.6412 25.252 29.0078 24.34C28.3998 23.4027 28.0958 22.3513 28.0958 21.186C28.0958 19.362 28.7672 17.9053 30.1098 16.816C31.4778 15.7013 33.6185 15.144 36.5318 15.144H41.7758V14.84C41.7758 13.4213 41.3452 12.332 40.4838 11.572C39.6478 10.812 38.3938 10.432 36.7218 10.432C35.5818 10.432 34.4545 10.6093 33.3398 10.964C32.2505 11.3187 31.3258 11.8127 30.5658 12.446L28.7038 8.988C29.7678 8.17733 31.0472 7.55667 32.5418 7.126C34.0365 6.69533 35.6198 6.48 37.2918 6.48ZM36.6458 23.808C37.8365 23.808 38.8878 23.542 39.7998 23.01C40.7372 22.4527 41.3958 21.6673 41.7758 20.654V18.298H36.8738C34.1378 18.298 32.7698 19.1973 32.7698 20.996C32.7698 21.8573 33.1118 22.5413 33.7958 23.048C34.4798 23.5547 35.4298 23.808 36.6458 23.808ZM78.2339 6.48C80.7925 6.48 82.8192 7.22733 84.3139 8.722C85.8085 10.1913 86.5559 12.408 86.5559 15.372V27H81.8059V15.98C81.8059 14.2067 81.4132 12.8767 80.6279 11.99C79.8425 11.078 78.7152 10.622 77.2459 10.622C75.6499 10.622 74.3705 11.154 73.4079 12.218C72.4452 13.2567 71.9639 14.7513 71.9639 16.702V27H67.2139V15.98C67.2139 14.2067 66.8212 12.8767 66.0359 11.99C65.2505 11.078 64.1232 10.622 62.6539 10.622C61.0325 10.622 59.7405 11.1413 58.7779 12.18C57.8405 13.2187 57.3719 14.726 57.3719 16.702V27H52.6219V6.708H57.1439V9.292C57.9039 8.38 58.8539 7.68333 59.9939 7.202C61.1339 6.72067 62.4005 6.48 63.7939 6.48C65.3139 6.48 66.6565 6.77133 67.8219 7.354C69.0125 7.91133 69.9499 8.74733 70.6339 9.862C71.4699 8.798 72.5465 7.97467 73.8639 7.392C75.1812 6.784 76.6379 6.48 78.2339 6.48ZM103.874 6.48C105.85 6.48 107.61 6.91067 109.156 7.772C110.726 8.63333 111.955 9.84933 112.842 11.42C113.728 12.9907 114.172 14.802 114.172 16.854C114.172 18.906 113.728 20.73 112.842 22.326C111.955 23.8967 110.726 25.1127 109.156 25.974C107.61 26.8353 105.85 27.266 103.874 27.266C101.138 27.266 98.9718 26.354 97.3758 24.53V34.372H92.6258V6.708H97.1478V9.368C97.9331 8.40533 98.8958 7.68333 100.036 7.202C101.201 6.72067 102.48 6.48 103.874 6.48ZM103.342 23.2C105.09 23.2 106.521 22.6173 107.636 21.452C108.776 20.2867 109.346 18.754 109.346 16.854C109.346 14.954 108.776 13.4213 107.636 12.256C106.521 11.0907 105.09 10.508 103.342 10.508C102.202 10.508 101.176 10.774 100.264 11.306C99.3518 11.8127 98.6298 12.5473 98.0978 13.51C97.5658 14.4727 97.2998 15.5873 97.2998 16.854C97.2998 18.1207 97.5658 19.2353 98.0978 20.198C98.6298 21.1607 99.3518 21.908 100.264 22.44C101.176 22.9467 102.202 23.2 103.342 23.2ZM137.753 16.968C137.753 17.2973 137.727 17.766 137.677 18.374H121.755C122.033 19.8687 122.755 21.0593 123.921 21.946C125.111 22.8073 126.581 23.238 128.329 23.238C130.558 23.238 132.395 22.5033 133.839 21.034L136.385 23.96C135.473 25.0493 134.32 25.8727 132.927 26.43C131.533 26.9873 129.963 27.266 128.215 27.266C125.985 27.266 124.022 26.8227 122.325 25.936C120.627 25.0493 119.31 23.8207 118.373 22.25C117.461 20.654 117.005 18.8553 117.005 16.854C117.005 14.878 117.448 13.1047 118.335 11.534C119.247 9.938 120.501 8.69667 122.097 7.81C123.693 6.92333 125.491 6.48 127.493 6.48C129.469 6.48 131.229 6.92333 132.775 7.81C134.345 8.67133 135.561 9.9 136.423 11.496C137.309 13.0667 137.753 14.8907 137.753 16.968ZM127.493 10.28C125.973 10.28 124.681 10.736 123.617 11.648C122.578 12.5347 121.945 13.7253 121.717 15.22H133.231C133.028 13.7507 132.407 12.56 131.369 11.648C130.33 10.736 129.038 10.28 127.493 10.28ZM146.837 9.672C148.205 7.544 150.612 6.48 154.057 6.48V11.002C153.652 10.926 153.285 10.888 152.955 10.888C151.106 10.888 149.662 11.4327 148.623 12.522C147.585 13.586 147.065 15.1313 147.065 17.158V27H142.315V6.708H146.837V9.672Z" fill="#006DAB"/>
</svg>
